<svg xmlns="http://www.w3.org/2000/svg" viewBox="0 0 800 300" width="800" height="300">
  <rect width="800" height="300" fill="#FFFFFF"/>
  
  <g id="isotipo-mono" transform="translate(90, 75)">
    <circle cx="70" cy="75" r="65" fill="none" stroke="#000000" stroke-width="2" opacity="0.3" stroke-dasharray="5,5"/>
    
    <path d="M 70 30 L 100 45 L 100 75 L 70 90 L 40 75 L 40 45 Z" 
          fill="none" stroke="#000000" stroke-width="3"/>
    
    <circle cx="70" cy="60" r="18" fill="#000000" opacity="0.2"/>
    <circle cx="70" cy="60" r="12" fill="#000000" opacity="0.5"/>
    <circle cx="70" cy="60" r="6" fill="#000000"/>
    
    <g opacity="0.6">
      <path d="M 130 35 L 145 42.5 L 145 57.5 L 130 65 L 115 57.5 L 115 42.5 Z" 
            fill="none" stroke="#000000" stroke-width="2"/>
      <path d="M 127 45 L 133 48 L 133 54 L 127 57 L 121 54 L 121 48 Z" 
            fill="#000000" opacity="0.3"/>
      
      <path d="M 130 85 L 145 92.5 L 145 107.5 L 130 115 L 115 107.5 L 115 92.5 Z" 
            fill="none" stroke="#000000" stroke-width="2"/>
      
      <path d="M 10 60 L 25 67.5 L 25 82.5 L 10 90 L -5 82.5 L -5 67.5 Z" 
            fill="none" stroke="#000000" stroke-width="2"/>
    </g>
    
    <line x1="100" y1="60" x2="115" y2="50" stroke="#000000" stroke-width="2" opacity="0.4"/>
    <line x1="100" y1="75" x2="115" y2="100" stroke="#000000" stroke-width="2" opacity="0.4"/>
    <line x1="40" y1="75" x2="25" y2="75" stroke="#000000" stroke-width="2" opacity="0.4"/>
    
    <circle cx="100" cy="60" r="2.5" fill="#000000"/>
    <circle cx="115" cy="50" r="2.5" fill="#000000"/>
    <circle cx="100" cy="75" r="2.5" fill="#000000"/>
  </g>
  
  <g id="typography">
    <text x="290" y="165" font-family="'Orbitron', sans-serif" 
          font-size="78" font-weight="800" fill="#000000" letter-spacing="2">PIBELABS</text>
    
    <text x="290" y="198" font-family="'Rajdhani', sans-serif" 
          font-size="14" font-weight="500" fill="#000000" letter-spacing="6" opacity="0.6">NEXT-GEN INNOVATION</text>
  </g>
</svg>
